<?xml version="1.0" encoding="utf-8" standalone="no"?>
<!DOCTYPE svg PUBLIC "-//W3C//DTD SVG 1.1//EN"
  "http://www.w3.org/Graphics/SVG/1.1/DTD/svg11.dtd">
<svg xmlns:xlink="http://www.w3.org/1999/xlink" width="748.8pt" height="514.8pt" viewBox="0 0 748.8 514.8" xmlns="http://www.w3.org/2000/svg" version="1.1">
 <metadata>
  <rdf:RDF xmlns:dc="http://purl.org/dc/elements/1.1/" xmlns:cc="http://creativecommons.org/ns#" xmlns:rdf="http://www.w3.org/1999/02/22-rdf-syntax-ns#">
   <cc:Work>
    <dc:type rdf:resource="http://purl.org/dc/dcmitype/StillImage"/>
    <dc:date>2023-05-19T01:27:33.183631</dc:date>
    <dc:format>image/svg+xml</dc:format>
    <dc:creator>
     <cc:Agent>
      <dc:title>Matplotlib v3.5.2, https://matplotlib.org/</dc:title>
     </cc:Agent>
    </dc:creator>
   </cc:Work>
  </rdf:RDF>
 </metadata>
 <defs>
  <style type="text/css">*{stroke-linejoin: round; stroke-linecap: butt}</style>
 </defs>
 <g id="figure_1">
  <g id="patch_1">
   <path d="M 0 514.8 
L 748.8 514.8 
L 748.8 0 
L 0 0 
z
" style="fill: #ffffff"/>
  </g>
  <g id="axes_1">
   <g id="line2d_1">
    <path d="M 119.978182 440.154 
L 120.506274 440.096278 
L 121.562457 439.634727 
L 122.61864 438.712807 
L 123.674824 437.33288 
L 124.731007 435.498483 
L 125.787191 433.214316 
L 126.843374 430.486232 
L 128.427649 425.57736 
L 130.011925 419.713961 
L 131.5962 412.92983 
L 133.180475 405.264071 
L 135.292842 393.748707 
L 137.405209 380.863065 
L 139.517576 366.739134 
L 142.158034 347.564368 
L 145.326585 322.733682 
L 149.551319 287.482354 
L 160.641245 193.42582 
L 163.809795 168.859059 
L 166.450254 149.966518 
L 169.090713 132.833787 
L 171.203079 120.579905 
L 173.315446 109.753853 
L 174.899722 102.638621 
L 176.483997 96.430256 
L 178.068272 91.164543 
L 179.652547 86.871833 
L 180.708731 84.563038 
L 181.764914 82.70372 
L 182.821097 81.298644 
L 183.877281 80.35141 
L 184.933464 79.864445 
L 185.461556 79.794 
L 185.989648 79.838998 
L 187.045831 80.275132 
L 188.102015 81.171731 
L 189.158198 82.526498 
L 190.214382 84.33596 
L 191.270565 86.595481 
L 192.326749 89.299272 
L 193.911024 94.1725 
L 195.495299 100.001394 
L 197.079574 106.752356 
L 198.663849 114.386474 
L 200.776216 125.862342 
L 202.888583 138.711931 
L 205.00095 152.803623 
L 207.641409 171.943953 
L 210.809959 196.742625 
L 215.034693 231.968228 
L 226.124619 326.054047 
L 229.29317 350.654182 
L 231.933628 369.582207 
L 234.574087 386.756799 
L 236.686454 399.048313 
L 238.798821 409.915266 
L 240.383096 417.063068 
L 241.967371 423.305418 
L 243.551646 428.606336 
L 245.135921 432.935267 
L 246.192105 435.268673 
L 247.248288 437.152896 
L 248.304472 438.583111 
L 249.360655 439.555652 
L 250.416839 440.068026 
L 250.94493 440.151195 
L 251.473022 440.118922 
L 252.529206 439.708208 
L 253.585389 438.836936 
L 254.641572 437.507341 
L 255.697756 435.722828 
L 256.753939 433.48797 
L 257.810123 430.808494 
L 259.394398 425.970947 
L 260.978673 420.176604 
L 262.562948 413.458863 
L 264.147224 405.856445 
L 266.25959 394.420163 
L 268.371957 381.606726 
L 270.484324 367.547383 
L 273.124783 348.441638 
L 276.293333 323.675173 
L 279.989975 292.969426 
L 292.664177 185.953401 
L 295.832727 161.951735 
L 298.473186 143.652247 
L 300.585553 130.339361 
L 302.69792 118.354339 
L 304.810287 107.819944 
L 306.394562 100.936625 
L 307.978837 94.969984 
L 309.563112 89.954412 
L 310.619296 87.153576 
L 311.675479 84.795579 
L 312.731663 82.886463 
L 313.787846 81.431121 
L 314.844029 80.433281 
L 315.900213 79.895501 
L 316.428305 79.79961 
L 316.956396 79.819159 
L 317.484488 79.954134 
L 318.540672 80.569945 
L 319.596855 81.645465 
L 320.653038 83.177938 
L 321.709222 85.163438 
L 322.765405 87.596876 
L 323.821589 90.472018 
L 325.405864 95.596504 
L 326.990139 101.668447 
L 328.574414 108.652849 
L 330.15869 116.509454 
L 332.271057 128.262723 
L 334.383423 141.365128 
L 337.023882 159.434687 
L 339.664341 179.112592 
L 342.832891 204.40435 
L 347.057625 240.011632 
L 356.563276 320.844867 
L 359.731826 345.801672 
L 362.372285 365.112689 
L 365.012744 382.741773 
L 367.125111 395.443511 
L 369.237477 406.757611 
L 370.821753 414.262263 
L 372.406028 420.877607 
L 373.990303 426.565513 
L 375.574578 431.293195 
L 376.630762 433.897836 
L 377.686945 436.056809 
L 378.743129 437.764581 
L 379.799312 439.016777 
L 380.855495 439.810187 
L 381.911679 440.142779 
L 382.439771 440.135956 
L 382.967862 440.0137 
L 384.024046 439.423282 
L 385.080229 438.373036 
L 386.136413 436.865655 
L 387.192596 434.905 
L 388.24878 432.496097 
L 389.304963 429.645116 
L 390.889238 424.556038 
L 392.473514 418.518319 
L 394.057789 411.566761 
L 395.642064 403.74143 
L 397.754431 392.027109 
L 399.866798 378.960143 
L 402.507256 360.929399 
L 405.147715 341.283642 
L 408.316265 316.020944 
L 412.540999 280.435212 
L 422.04665 199.575829 
L 425.215201 174.58798 
L 427.855659 155.243275 
L 430.496118 137.573966 
L 432.608485 124.83577 
L 434.720852 113.481812 
L 436.305127 105.945278 
L 437.889402 99.296553 
L 439.473677 93.573959 
L 441.057952 88.81048 
L 442.114136 86.181461 
L 443.170319 83.997772 
L 444.226503 82.265009 
L 445.282686 80.987611 
L 446.33887 80.168853 
L 447.395053 79.810831 
L 447.923145 79.80493 
L 448.451237 79.914464 
L 449.50742 80.479486 
L 450.563604 81.504449 
L 451.619787 82.986727 
L 452.675971 84.922521 
L 453.732154 87.306871 
L 454.788337 90.133667 
L 456.372613 95.187299 
L 457.956888 101.190746 
L 459.541163 108.109407 
L 461.125438 115.903402 
L 463.237805 127.578685 
L 465.350172 140.610109 
L 467.990631 158.601898 
L 470.631089 178.215354 
L 473.79964 203.448795 
L 478.024373 239.012701 
L 487.530025 319.897602 
L 490.698575 344.916302 
L 493.339034 364.294543 
L 495.979492 382.00394 
L 498.091859 394.778495 
L 500.204226 406.172223 
L 501.788501 413.740579 
L 503.372776 420.422633 
L 504.957052 426.179871 
L 506.541327 430.979109 
L 507.59751 433.632486 
L 508.653694 435.840874 
L 509.709877 437.598615 
L 510.766061 438.901205 
L 511.822244 439.745305 
L 512.878428 440.128753 
L 513.406519 440.14738 
L 513.934611 440.050567 
L 514.990794 439.510946 
L 516.046978 438.511274 
L 517.103161 437.054111 
L 518.159345 435.143193 
L 519.215528 432.783415 
L 520.271712 429.980824 
L 521.855987 424.962679 
L 523.440262 418.99355 
L 525.024537 412.107841 
L 526.608812 404.345242 
L 528.721179 392.709089 
L 530.833546 379.713306 
L 533.474005 361.760613 
L 536.114464 342.17961 
L 539.283014 316.975623 
L 543.507748 281.43382 
L 553.013399 200.524031 
L 556.181949 175.474676 
L 558.822408 156.063048 
L 561.462867 138.313702 
L 563.575233 125.502888 
L 565.6876 114.069478 
L 567.271876 106.469359 
L 568.856151 99.754027 
L 570.440426 93.96219 
L 572.024701 89.12723 
L 573.080885 86.449516 
L 574.137068 84.216446 
L 575.193251 82.433741 
L 576.249435 81.10597 
L 577.305618 80.236534 
L 578.361802 79.827662 
L 578.889894 79.796311 
L 579.417985 79.880401 
L 580.474169 80.394617 
L 581.530352 81.368991 
L 582.586536 82.801026 
L 583.642719 84.687054 
L 584.698903 87.022242 
L 585.755086 89.800605 
L 587.339361 94.783225 
L 588.923636 100.71799 
L 590.507912 107.570693 
L 592.092187 115.301835 
L 594.204554 126.898769 
L 596.316921 139.858808 
L 598.957379 157.772265 
L 601.597838 177.320662 
L 604.766388 202.494999 
L 608.991122 238.014422 
L 619.024865 323.238782 
L 622.193415 348.035127 
L 624.833874 367.172955 
L 627.474333 384.595892 
L 629.586699 397.111182 
L 631.699066 408.221751 
L 633.283342 415.563794 
L 634.867617 422.009026 
L 636.451892 427.520298 
L 638.036167 432.065844 
L 639.092351 434.546521 
L 640.148534 436.579867 
L 641.204717 438.160672 
L 642.260901 439.284886 
L 643.317084 439.949628 
L 644.373268 440.153193 
L 644.90136 440.081826 
L 645.957543 439.59302 
L 647.013726 438.643952 
L 647.541818 437.997534 
L 647.541818 437.997534 
" clip-path="url(#pfd7c2132df)" style="fill: none; stroke: #4c72b0; stroke-width: 2.275; stroke-linecap: round"/>
   </g>
  </g>
 </g>
 <defs>
  <clipPath id="pfd7c2132df">
   <rect x="93.6" y="61.776" width="580.32" height="396.396"/>
  </clipPath>
 </defs>
</svg>
