<?xml version="1.0" encoding="utf-8" standalone="no"?>
<!DOCTYPE svg PUBLIC "-//W3C//DTD SVG 1.1//EN"
  "http://www.w3.org/Graphics/SVG/1.1/DTD/svg11.dtd">
<svg xmlns:xlink="http://www.w3.org/1999/xlink" width="748.8pt" height="514.8pt" viewBox="0 0 748.8 514.8" xmlns="http://www.w3.org/2000/svg" version="1.1">
 <metadata>
  <rdf:RDF xmlns:dc="http://purl.org/dc/elements/1.1/" xmlns:cc="http://creativecommons.org/ns#" xmlns:rdf="http://www.w3.org/1999/02/22-rdf-syntax-ns#">
   <cc:Work>
    <dc:type rdf:resource="http://purl.org/dc/dcmitype/StillImage"/>
    <dc:date>2023-05-18T19:27:35.485183</dc:date>
    <dc:format>image/svg+xml</dc:format>
    <dc:creator>
     <cc:Agent>
      <dc:title>Matplotlib v3.5.2, https://matplotlib.org/</dc:title>
     </cc:Agent>
    </dc:creator>
   </cc:Work>
  </rdf:RDF>
 </metadata>
 <defs>
  <style type="text/css">*{stroke-linejoin: round; stroke-linecap: butt}</style>
 </defs>
 <g id="figure_1">
  <g id="patch_1">
   <path d="M 0 514.8 
L 748.8 514.8 
L 748.8 0 
L 0 0 
z
" style="fill: #ffffff"/>
  </g>
  <g id="axes_1">
   <g id="patch_2">
    <path d="M 93.6 458.172 
L 673.92 458.172 
L 673.92 61.776 
L 93.6 61.776 
z
" style="fill: #eaeaf2"/>
   </g>
   <g id="matplotlib.axis_1">
    <g id="xtick_1">
     <g id="line2d_1">
      <path d="M 119.978182 458.172 
L 119.978182 61.776 
" clip-path="url(#p4005effd56)" style="fill: none; stroke: #ffffff; stroke-width: 1.3; stroke-linecap: round"/>
     </g>
     <g id="line2d_2"/>
     <g id="text_1">
      <text style="fill: #262626; font: 13px 'sans-serif'; text-anchor: middle" x="119.978182" y="476.577156" transform="rotate(-0, 119.978182, 476.577156)">0.0</text>
     </g>
    </g>
    <g id="xtick_2">
     <g id="line2d_3">
      <path d="M 225.490909 458.172 
L 225.490909 61.776 
" clip-path="url(#p4005effd56)" style="fill: none; stroke: #ffffff; stroke-width: 1.3; stroke-linecap: round"/>
     </g>
     <g id="line2d_4"/>
     <g id="text_2">
      <text style="fill: #262626; font: 13px 'sans-serif'; text-anchor: middle" x="225.490909" y="476.577156" transform="rotate(-0, 225.490909, 476.577156)">0.2</text>
     </g>
    </g>
    <g id="xtick_3">
     <g id="line2d_5">
      <path d="M 331.003636 458.172 
L 331.003636 61.776 
" clip-path="url(#p4005effd56)" style="fill: none; stroke: #ffffff; stroke-width: 1.3; stroke-linecap: round"/>
     </g>
     <g id="line2d_6"/>
     <g id="text_3">
      <text style="fill: #262626; font: 13px 'sans-serif'; text-anchor: middle" x="331.003636" y="476.577156" transform="rotate(-0, 331.003636, 476.577156)">0.4</text>
     </g>
    </g>
    <g id="xtick_4">
     <g id="line2d_7">
      <path d="M 436.516364 458.172 
L 436.516364 61.776 
" clip-path="url(#p4005effd56)" style="fill: none; stroke: #ffffff; stroke-width: 1.3; stroke-linecap: round"/>
     </g>
     <g id="line2d_8"/>
     <g id="text_4">
      <text style="fill: #262626; font: 13px 'sans-serif'; text-anchor: middle" x="436.516364" y="476.577156" transform="rotate(-0, 436.516364, 476.577156)">0.6</text>
     </g>
    </g>
    <g id="xtick_5">
     <g id="line2d_9">
      <path d="M 542.029091 458.172 
L 542.029091 61.776 
" clip-path="url(#p4005effd56)" style="fill: none; stroke: #ffffff; stroke-width: 1.3; stroke-linecap: round"/>
     </g>
     <g id="line2d_10"/>
     <g id="text_5">
      <text style="fill: #262626; font: 13px 'sans-serif'; text-anchor: middle" x="542.029091" y="476.577156" transform="rotate(-0, 542.029091, 476.577156)">0.8</text>
     </g>
    </g>
    <g id="xtick_6">
     <g id="line2d_11">
      <path d="M 647.541818 458.172 
L 647.541818 61.776 
" clip-path="url(#p4005effd56)" style="fill: none; stroke: #ffffff; stroke-width: 1.3; stroke-linecap: round"/>
     </g>
     <g id="line2d_12"/>
     <g id="text_6">
      <text style="fill: #262626; font: 13px 'sans-serif'; text-anchor: middle" x="647.541818" y="476.577156" transform="rotate(-0, 647.541818, 476.577156)">1.0</text>
     </g>
    </g>
    <g id="text_7">
     <text style="fill: #262626; font: 14.3px 'sans-serif'; text-anchor: middle" x="383.76" y="493.396578" transform="rotate(-0, 383.76, 493.396578)">AC1</text>
    </g>
   </g>
   <g id="matplotlib.axis_2">
    <g id="ytick_1">
     <g id="line2d_13">
      <path d="M 93.6 441.568522 
L 673.92 441.568522 
" clip-path="url(#p4005effd56)" style="fill: none; stroke: #ffffff; stroke-width: 1.3; stroke-linecap: round"/>
     </g>
     <g id="line2d_14"/>
     <g id="text_8">
      <text style="fill: #262626; font: 13px 'sans-serif'; text-anchor: end" x="84.5" y="446.2211" transform="rotate(-0, 84.5, 446.2211)">0.00</text>
     </g>
    </g>
    <g id="ytick_2">
     <g id="line2d_15">
      <path d="M 93.6 386.868331 
L 673.92 386.868331 
" clip-path="url(#p4005effd56)" style="fill: none; stroke: #ffffff; stroke-width: 1.3; stroke-linecap: round"/>
     </g>
     <g id="line2d_16"/>
     <g id="text_9">
      <text style="fill: #262626; font: 13px 'sans-serif'; text-anchor: end" x="84.5" y="391.520909" transform="rotate(-0, 84.5, 391.520909)">0.01</text>
     </g>
    </g>
    <g id="ytick_3">
     <g id="line2d_17">
      <path d="M 93.6 332.168139 
L 673.92 332.168139 
" clip-path="url(#p4005effd56)" style="fill: none; stroke: #ffffff; stroke-width: 1.3; stroke-linecap: round"/>
     </g>
     <g id="line2d_18"/>
     <g id="text_10">
      <text style="fill: #262626; font: 13px 'sans-serif'; text-anchor: end" x="84.5" y="336.820717" transform="rotate(-0, 84.5, 336.820717)">0.02</text>
     </g>
    </g>
    <g id="ytick_4">
     <g id="line2d_19">
      <path d="M 93.6 277.467947 
L 673.92 277.467947 
" clip-path="url(#p4005effd56)" style="fill: none; stroke: #ffffff; stroke-width: 1.3; stroke-linecap: round"/>
     </g>
     <g id="line2d_20"/>
     <g id="text_11">
      <text style="fill: #262626; font: 13px 'sans-serif'; text-anchor: end" x="84.5" y="282.120526" transform="rotate(-0, 84.5, 282.120526)">0.03</text>
     </g>
    </g>
    <g id="ytick_5">
     <g id="line2d_21">
      <path d="M 93.6 222.767756 
L 673.92 222.767756 
" clip-path="url(#p4005effd56)" style="fill: none; stroke: #ffffff; stroke-width: 1.3; stroke-linecap: round"/>
     </g>
     <g id="line2d_22"/>
     <g id="text_12">
      <text style="fill: #262626; font: 13px 'sans-serif'; text-anchor: end" x="84.5" y="227.420334" transform="rotate(-0, 84.5, 227.420334)">0.04</text>
     </g>
    </g>
    <g id="ytick_6">
     <g id="line2d_23">
      <path d="M 93.6 168.067564 
L 673.92 168.067564 
" clip-path="url(#p4005effd56)" style="fill: none; stroke: #ffffff; stroke-width: 1.3; stroke-linecap: round"/>
     </g>
     <g id="line2d_24"/>
     <g id="text_13">
      <text style="fill: #262626; font: 13px 'sans-serif'; text-anchor: end" x="84.5" y="172.720142" transform="rotate(-0, 84.5, 172.720142)">0.05</text>
     </g>
    </g>
    <g id="ytick_7">
     <g id="line2d_25">
      <path d="M 93.6 113.367373 
L 673.92 113.367373 
" clip-path="url(#p4005effd56)" style="fill: none; stroke: #ffffff; stroke-width: 1.3; stroke-linecap: round"/>
     </g>
     <g id="line2d_26"/>
     <g id="text_14">
      <text style="fill: #262626; font: 13px 'sans-serif'; text-anchor: end" x="84.5" y="118.019951" transform="rotate(-0, 84.5, 118.019951)">0.06</text>
     </g>
    </g>
    <g id="text_15">
     <text style="fill: #262626; font: 14.3px 'sans-serif'; text-anchor: middle" x="52.358656" y="259.974" transform="rotate(-90, 52.358656, 259.974)">Variance of AMI1 samples</text>
    </g>
   </g>
   <g id="line2d_27">
    <path d="M 119.978182 439.425629 
L 120.506274 439.975876 
L 121.034365 439.226867 
L 122.61864 439.568906 
L 123.146732 439.584924 
L 123.674824 439.346978 
L 124.202916 439.324847 
L 124.731007 439.610752 
L 126.315283 439.629125 
L 126.843374 439.598848 
L 127.899558 439.008628 
L 128.427649 439.559757 
L 128.955741 439.637924 
L 129.483833 439.436433 
L 130.011925 439.550293 
L 130.540016 439.463107 
L 131.068108 439.754995 
L 131.5962 439.786323 
L 132.124292 439.192204 
L 132.652383 439.590044 
L 133.180475 439.368015 
L 133.708567 438.844252 
L 134.236658 439.282323 
L 134.76475 439.373455 
L 135.292842 439.295268 
L 135.820934 439.699019 
L 136.349025 439.060837 
L 136.877117 439.510519 
L 137.933301 439.629651 
L 138.461392 439.508405 
L 138.989484 439.251463 
L 140.045667 439.653799 
L 140.573759 439.847394 
L 141.101851 439.463594 
L 141.629943 439.716798 
L 142.158034 440.154 
L 142.686126 439.56079 
L 143.214218 439.190842 
L 143.74231 439.655237 
L 144.270401 439.82473 
L 144.798493 439.796503 
L 145.854676 439.333425 
L 146.382768 440.103684 
L 146.91086 439.151062 
L 147.438952 439.233991 
L 147.967043 440.147358 
L 148.495135 439.444122 
L 149.551319 439.661477 
L 150.07941 439.033383 
L 151.135594 439.485107 
L 151.663686 439.948269 
L 152.191777 439.562805 
L 152.719869 439.515424 
L 153.247961 439.846049 
L 153.776052 439.422348 
L 154.304144 439.543435 
L 154.832236 439.957685 
L 155.360328 439.699616 
L 156.944603 439.686203 
L 157.472695 439.300683 
L 158.000786 439.837205 
L 158.528878 439.38512 
L 159.05697 439.821028 
L 159.585061 439.452851 
L 160.641245 439.222517 
L 161.169337 439.587143 
L 161.697428 439.430493 
L 162.22552 439.433876 
L 162.753612 440.069884 
L 163.281704 439.282178 
L 164.337887 439.614978 
L 164.865979 439.417885 
L 165.39407 439.388332 
L 165.922162 439.499796 
L 166.450254 439.732664 
L 166.978346 439.483028 
L 167.506437 440.069504 
L 168.562621 438.97741 
L 169.090713 439.518013 
L 169.618804 438.904554 
L 170.146896 440.103053 
L 170.674988 439.405267 
L 171.203079 440.020556 
L 171.731171 439.66438 
L 172.259263 439.104953 
L 172.787355 439.435304 
L 173.315446 439.625675 
L 174.37163 439.583954 
L 174.899722 439.517888 
L 175.427813 439.148108 
L 175.955905 439.834596 
L 176.483997 439.174363 
L 177.54018 440.081325 
L 178.068272 439.874437 
L 179.124455 438.902718 
L 179.652547 439.066299 
L 180.180639 439.791165 
L 181.236822 439.638063 
L 181.764914 439.281249 
L 182.293006 439.696471 
L 182.821097 439.344822 
L 183.349189 439.695367 
L 183.877281 439.544913 
L 184.405373 439.056714 
L 184.933464 439.711606 
L 185.461556 439.376585 
L 186.51774 439.370172 
L 187.045831 438.93993 
L 187.573923 439.43576 
L 188.102015 439.362407 
L 188.630106 439.66024 
L 190.214382 438.919247 
L 190.742473 439.610681 
L 191.270565 439.374437 
L 191.798657 439.005246 
L 192.85484 439.873657 
L 193.911024 439.655519 
L 194.439115 439.151236 
L 194.967207 439.729106 
L 195.495299 439.963386 
L 196.023391 439.651715 
L 196.551482 439.993872 
L 197.079574 440.030638 
L 197.607666 439.492437 
L 198.663849 439.724635 
L 199.191941 439.168041 
L 199.720033 439.521612 
L 200.248124 439.443796 
L 200.776216 438.902089 
L 201.8324 439.132666 
L 202.360491 438.954126 
L 202.888583 439.757837 
L 203.416675 439.760718 
L 203.944767 438.759699 
L 204.472858 439.480824 
L 205.00095 439.58122 
L 205.529042 439.46146 
L 206.057133 438.887455 
L 206.585225 439.811001 
L 207.113317 439.125833 
L 207.641409 439.853164 
L 208.1695 439.114024 
L 208.697592 439.201622 
L 209.225684 439.466577 
L 209.753776 439.300028 
L 210.281867 439.464144 
L 210.809959 439.243452 
L 211.338051 439.486277 
L 211.866143 439.180122 
L 212.394234 439.69782 
L 212.922326 439.27752 
L 213.450418 439.399116 
L 213.978509 439.059511 
L 215.034693 439.190284 
L 215.562785 439.701405 
L 216.618968 439.318241 
L 217.14706 439.828279 
L 217.675152 438.94595 
L 218.203243 439.47449 
L 218.731335 439.66812 
L 219.259427 439.333578 
L 219.787518 439.59226 
L 220.31561 439.13503 
L 220.843702 439.20476 
L 221.371794 438.812906 
L 221.899885 439.227948 
L 222.427977 439.165574 
L 222.956069 439.410658 
L 223.484161 439.438127 
L 224.540344 438.95842 
L 225.068436 439.081114 
L 226.124619 439.548074 
L 227.708894 439.765017 
L 228.236986 439.416784 
L 228.765078 439.940361 
L 229.29317 439.35621 
L 229.821261 439.460637 
L 230.349353 439.11849 
L 230.877445 439.858063 
L 231.405536 439.492952 
L 231.933628 439.304711 
L 232.46172 439.572669 
L 232.989812 439.442432 
L 233.517903 439.701997 
L 234.045995 439.217141 
L 234.574087 439.392541 
L 235.102179 439.073533 
L 236.686454 438.872662 
L 237.214545 439.205643 
L 237.742637 439.245126 
L 238.270729 440.030375 
L 238.798821 439.364681 
L 239.326912 439.194679 
L 239.855004 439.867248 
L 240.383096 439.226157 
L 240.911188 439.218447 
L 241.439279 438.989018 
L 241.967371 439.444727 
L 242.495463 439.50933 
L 243.023554 439.830848 
L 243.551646 439.239855 
L 244.079738 439.353176 
L 244.60783 439.089079 
L 245.664013 439.702283 
L 246.192105 439.00254 
L 246.720197 439.660701 
L 247.248288 439.217007 
L 247.77638 439.259804 
L 248.304472 439.105712 
L 248.832563 439.634332 
L 249.360655 439.566081 
L 249.888747 439.649955 
L 250.416839 439.072688 
L 250.94493 439.746376 
L 251.473022 438.556484 
L 252.001114 439.530438 
L 252.529206 438.800624 
L 253.057297 439.636228 
L 254.113481 439.319047 
L 254.641572 439.742526 
L 255.169664 439.201546 
L 255.697756 439.535251 
L 256.225848 438.938104 
L 256.753939 439.898247 
L 257.282031 439.330734 
L 257.810123 439.067334 
L 258.338215 439.566161 
L 258.866306 439.222393 
L 259.394398 439.018294 
L 259.92249 439.490864 
L 260.450581 439.532515 
L 260.978673 438.889122 
L 261.506765 439.726485 
L 262.034857 439.456476 
L 262.562948 438.882871 
L 263.09104 439.300686 
L 263.619132 439.488053 
L 264.147224 439.453722 
L 264.675315 438.73994 
L 265.203407 438.926247 
L 266.25959 439.589296 
L 266.787682 439.170336 
L 267.315774 439.189468 
L 267.843866 439.576863 
L 268.371957 439.413136 
L 268.900049 439.517245 
L 269.428141 439.144485 
L 269.956233 439.781157 
L 270.484324 439.377441 
L 271.012416 439.231868 
L 271.540508 439.370845 
L 272.596691 439.002407 
L 273.124783 439.649939 
L 273.652875 438.538303 
L 274.709058 439.866975 
L 275.23715 439.069778 
L 275.765242 439.049261 
L 276.293333 439.51767 
L 276.821425 439.347385 
L 277.349517 439.577576 
L 277.877609 439.294282 
L 278.4057 439.234165 
L 278.933792 439.048786 
L 279.461884 439.354891 
L 279.989975 439.224205 
L 280.518067 439.479326 
L 281.046159 438.647616 
L 281.574251 439.756719 
L 282.102342 439.094565 
L 282.630434 439.678806 
L 283.686618 438.898335 
L 284.214709 439.246835 
L 285.798984 439.638983 
L 286.327076 438.967209 
L 287.38326 438.990528 
L 288.439443 439.663845 
L 288.967535 439.158118 
L 289.495627 438.960056 
L 290.55181 438.938277 
L 291.079902 439.452223 
L 291.607993 439.172393 
L 292.136085 439.564004 
L 292.664177 439.645388 
L 293.192269 439.428353 
L 293.72036 439.681402 
L 294.248452 439.208611 
L 294.776544 438.981233 
L 295.304636 439.092406 
L 295.832727 438.973672 
L 296.360819 439.343385 
L 296.888911 439.264053 
L 297.417002 438.761289 
L 297.945094 439.299523 
L 298.473186 439.53023 
L 299.001278 439.091944 
L 299.529369 439.422456 
L 300.057461 438.767292 
L 300.585553 439.081734 
L 301.113645 438.883635 
L 301.641736 439.669214 
L 302.169828 439.404412 
L 302.69792 439.330674 
L 303.226011 439.633644 
L 303.754103 439.596362 
L 304.282195 439.27411 
L 304.810287 439.674873 
L 305.338378 439.043995 
L 305.86647 439.212433 
L 306.394562 439.081517 
L 306.922654 439.143368 
L 307.450745 438.939811 
L 307.978837 438.439364 
L 308.506929 439.721222 
L 309.03502 439.505816 
L 309.563112 439.492616 
L 310.619296 439.015761 
L 311.147387 439.767471 
L 311.675479 439.461203 
L 312.203571 438.766851 
L 313.259754 439.412495 
L 314.315938 439.158958 
L 314.844029 439.281835 
L 315.900213 438.618774 
L 316.428305 439.515871 
L 316.956396 439.158038 
L 317.484488 439.570257 
L 318.01258 438.84493 
L 318.540672 439.621328 
L 319.596855 438.954614 
L 320.124947 438.944249 
L 320.653038 439.63743 
L 321.18113 439.656213 
L 321.709222 438.570774 
L 322.237314 439.822853 
L 323.293497 438.392741 
L 323.821589 438.567354 
L 324.349681 438.428035 
L 324.877772 439.436497 
L 325.405864 438.913494 
L 326.462048 439.490946 
L 326.990139 438.893412 
L 328.574414 438.973473 
L 329.102506 438.734338 
L 329.630598 438.830042 
L 330.15869 438.647291 
L 330.686781 439.072849 
L 331.214873 438.910436 
L 331.742965 439.674979 
L 333.32724 438.905022 
L 333.855332 439.243274 
L 334.383423 438.989645 
L 334.911515 438.907876 
L 335.439607 439.233085 
L 335.967699 439.045038 
L 336.49579 439.081681 
L 337.023882 438.659069 
L 337.551974 439.720485 
L 338.080066 439.134929 
L 338.608157 439.191185 
L 339.136249 439.422355 
L 339.664341 438.832567 
L 340.192432 439.138445 
L 340.720524 438.147291 
L 341.248616 439.129576 
L 341.776708 439.315364 
L 342.832891 438.340156 
L 343.360983 438.493841 
L 343.889075 439.223369 
L 344.417166 438.815114 
L 345.47335 438.770893 
L 346.529533 439.098633 
L 347.057625 438.590492 
L 347.585717 438.775256 
L 348.113808 439.141489 
L 348.6419 438.01947 
L 349.169992 438.605531 
L 349.698084 438.690172 
L 350.226175 438.98262 
L 350.754267 438.326699 
L 351.282359 439.259151 
L 351.81045 438.966823 
L 352.338542 438.335999 
L 352.866634 439.003955 
L 353.394726 438.785008 
L 353.922817 438.968511 
L 354.450909 439.435906 
L 355.507093 439.075887 
L 356.035184 437.756057 
L 356.563276 439.321586 
L 357.091368 438.938904 
L 357.619459 438.020607 
L 358.147551 438.176891 
L 359.203735 438.78453 
L 359.731826 439.344767 
L 360.259918 438.170981 
L 361.316102 439.44042 
L 361.844193 438.65336 
L 362.372285 438.967889 
L 362.900377 438.688951 
L 363.428468 438.973277 
L 363.95656 439.093574 
L 364.484652 438.927868 
L 365.012744 438.509294 
L 365.540835 439.24324 
L 366.068927 438.153254 
L 366.597019 438.910538 
L 367.125111 438.67128 
L 367.653202 438.022966 
L 368.181294 438.993357 
L 368.709386 438.394237 
L 369.765569 438.782073 
L 370.293661 439.111601 
L 370.821753 439.263924 
L 371.349844 438.908854 
L 372.93412 438.739135 
L 373.462211 438.216039 
L 373.990303 438.837933 
L 375.046486 439.401264 
L 375.574578 438.506517 
L 376.630762 439.389737 
L 377.158853 438.255711 
L 377.686945 439.025342 
L 378.215037 438.747661 
L 378.743129 438.976113 
L 379.27122 438.063802 
L 379.799312 439.076346 
L 380.327404 438.478928 
L 380.855495 438.4662 
L 381.383587 439.055577 
L 381.911679 438.730896 
L 382.439771 439.339575 
L 382.967862 438.880366 
L 383.495954 438.588324 
L 384.024046 438.63736 
L 384.552138 438.849712 
L 385.080229 438.565774 
L 385.608321 438.774515 
L 386.136413 438.531925 
L 386.664505 439.032029 
L 387.192596 438.725931 
L 387.720688 438.583249 
L 388.24878 437.891449 
L 388.776871 438.505965 
L 389.304963 437.97106 
L 389.833055 438.384218 
L 390.361147 438.121192 
L 390.889238 439.05777 
L 391.41733 438.460785 
L 391.945422 438.223613 
L 392.473514 437.786204 
L 393.001605 438.908637 
L 393.529697 439.349137 
L 394.58588 438.377818 
L 395.113972 438.428379 
L 395.642064 439.286469 
L 396.170156 439.12508 
L 397.226339 438.283275 
L 397.754431 438.473415 
L 398.810614 437.509336 
L 399.338706 439.092611 
L 399.866798 438.724269 
L 400.394889 438.193733 
L 400.922981 438.319778 
L 401.979165 438.120432 
L 402.507256 439.191458 
L 403.035348 438.638851 
L 403.56344 438.929461 
L 404.091532 438.77988 
L 404.619623 438.502736 
L 405.147715 438.371025 
L 405.675807 437.933395 
L 406.203898 438.896018 
L 406.73199 439.253244 
L 407.788174 437.685475 
L 408.316265 438.604996 
L 408.844357 438.023167 
L 409.372449 437.943249 
L 410.428632 438.777985 
L 411.484816 437.971719 
L 412.012907 438.283293 
L 412.540999 439.343426 
L 413.069091 438.178755 
L 413.597183 439.029045 
L 414.125274 438.374444 
L 414.653366 438.334023 
L 415.181458 438.537052 
L 416.237641 438.350104 
L 416.765733 437.936594 
L 417.293825 438.753989 
L 417.821916 438.504444 
L 419.406192 438.218898 
L 419.934283 438.887759 
L 420.990467 438.335261 
L 421.518559 438.164255 
L 422.04665 438.215542 
L 422.574742 438.634057 
L 423.102834 438.039661 
L 423.630925 437.803783 
L 424.159017 438.440894 
L 424.687109 438.234491 
L 425.215201 437.23036 
L 425.743292 437.893171 
L 426.271384 437.964549 
L 426.799476 438.542396 
L 427.327568 438.322256 
L 427.855659 438.559768 
L 428.383751 438.193188 
L 428.911843 437.366565 
L 429.439934 438.277668 
L 429.968026 437.914758 
L 430.496118 438.873567 
L 431.02421 438.127347 
L 431.552301 437.748082 
L 432.080393 438.400549 
L 432.608485 437.827624 
L 433.664668 437.992305 
L 434.19276 437.190731 
L 434.720852 438.158816 
L 435.248943 438.223827 
L 435.777035 438.135614 
L 436.305127 438.653204 
L 436.833219 438.360354 
L 437.36131 437.744786 
L 437.889402 438.653627 
L 438.417494 437.692513 
L 438.945586 438.465437 
L 439.473677 437.344843 
L 440.001769 437.33516 
L 440.529861 437.808027 
L 441.057952 437.25762 
L 441.586044 438.211877 
L 442.114136 436.886449 
L 442.642228 438.179412 
L 443.698411 438.184727 
L 444.226503 437.041616 
L 444.754595 438.008082 
L 445.282686 438.367437 
L 445.810778 437.862182 
L 446.33887 436.849434 
L 446.866962 438.122282 
L 447.395053 437.954032 
L 447.923145 438.035855 
L 448.451237 438.576455 
L 449.50742 438.028313 
L 450.035512 437.191429 
L 450.563604 437.850278 
L 451.619787 438.076845 
L 452.675971 436.527305 
L 453.204062 437.889604 
L 453.732154 438.150621 
L 454.260246 436.469795 
L 454.788337 438.135058 
L 455.316429 438.091506 
L 455.844521 437.904438 
L 456.372613 438.571463 
L 456.900704 437.539196 
L 457.428796 437.866416 
L 457.956888 438.480273 
L 458.48498 437.566 
L 459.013071 437.264998 
L 459.541163 438.21069 
L 460.069255 436.793256 
L 460.597346 438.130809 
L 461.125438 438.510508 
L 461.65353 436.835007 
L 462.181622 437.089173 
L 462.709713 438.351806 
L 463.765897 437.871127 
L 464.293989 437.377827 
L 464.82208 437.757878 
L 465.350172 437.685435 
L 465.878264 438.265272 
L 466.406355 437.888909 
L 466.934447 437.73253 
L 467.462539 438.341418 
L 467.990631 437.130328 
L 468.518722 437.755177 
L 469.574906 436.950462 
L 470.102998 437.247667 
L 470.631089 438.333257 
L 471.159181 436.698162 
L 471.687273 438.283272 
L 472.215364 437.375975 
L 472.743456 437.156967 
L 473.271548 437.973857 
L 473.79964 437.362841 
L 474.855823 436.713081 
L 475.912007 438.161528 
L 476.440098 437.148104 
L 477.496282 437.603103 
L 478.024373 437.58623 
L 478.552465 435.776516 
L 479.080557 436.051745 
L 479.608649 437.464294 
L 480.664832 436.384489 
L 481.192924 436.953256 
L 481.721016 437.21918 
L 482.777199 437.274372 
L 483.305291 438.143274 
L 483.833382 437.081951 
L 484.361474 437.166817 
L 484.889566 436.429053 
L 485.417658 436.533976 
L 485.945749 438.700313 
L 486.473841 436.619468 
L 487.001933 436.298276 
L 487.530025 437.424715 
L 488.586208 437.726804 
L 489.1143 435.535859 
L 489.642391 436.934156 
L 490.170483 436.906216 
L 490.698575 437.131578 
L 491.226667 436.24571 
L 491.754758 437.774625 
L 492.28285 437.333959 
L 492.810942 436.107839 
L 493.339034 435.618209 
L 493.867125 436.915073 
L 494.395217 437.676588 
L 494.923309 436.538793 
L 495.4514 436.072119 
L 495.979492 436.522546 
L 496.507584 436.263064 
L 497.035676 436.582888 
L 497.563767 438.003607 
L 498.619951 436.308171 
L 499.148043 436.200677 
L 499.676134 436.310924 
L 500.204226 436.866917 
L 500.732318 435.995544 
L 501.788501 436.112774 
L 502.316593 438.044804 
L 502.844685 435.563832 
L 503.900868 438.516013 
L 504.42896 434.955153 
L 504.957052 436.614603 
L 505.485143 437.727834 
L 506.013235 435.223481 
L 506.541327 436.001641 
L 507.069419 437.142333 
L 507.59751 435.959274 
L 508.125602 435.473804 
L 508.653694 435.624123 
L 509.181785 437.152637 
L 509.709877 435.624055 
L 510.237969 436.368413 
L 510.766061 436.330146 
L 511.294152 436.622126 
L 511.822244 436.343611 
L 512.350336 437.498186 
L 512.878428 436.081319 
L 513.406519 437.220552 
L 513.934611 437.397733 
L 514.990794 436.045332 
L 515.518886 436.857497 
L 516.046978 436.781423 
L 516.57507 433.634128 
L 517.103161 434.652216 
L 517.631253 435.366433 
L 518.159345 435.502862 
L 518.687437 436.647897 
L 519.215528 435.380244 
L 519.74362 434.897932 
L 520.271712 435.245882 
L 520.799803 436.253248 
L 521.855987 436.055386 
L 522.384079 434.294581 
L 522.91217 435.663322 
L 523.440262 435.975547 
L 523.968354 434.298395 
L 524.496446 433.86753 
L 525.024537 434.897886 
L 525.552629 434.868272 
L 526.080721 435.32786 
L 526.608812 434.668268 
L 527.136904 435.635977 
L 527.664996 435.335752 
L 528.193088 435.799976 
L 529.249271 435.132983 
L 529.777363 435.671304 
L 530.305455 435.113019 
L 530.833546 434.99618 
L 531.361638 435.266041 
L 531.88973 434.633471 
L 532.417821 435.156685 
L 532.945913 436.058921 
L 533.474005 435.450695 
L 534.002097 436.246392 
L 534.530188 435.228041 
L 535.05828 436.315927 
L 535.586372 436.365014 
L 536.114464 435.32433 
L 536.642555 435.717817 
L 537.170647 435.021684 
L 537.698739 434.594019 
L 538.22683 434.369476 
L 538.754922 436.293767 
L 539.283014 434.554737 
L 539.811106 436.509797 
L 540.339197 435.899659 
L 540.867289 435.573295 
L 541.395381 433.686569 
L 541.923473 435.356142 
L 542.451564 435.115384 
L 542.979656 435.041 
L 543.507748 433.546294 
L 544.035839 433.119201 
L 544.563931 434.806599 
L 545.092023 434.744117 
L 545.620115 435.448755 
L 546.148206 434.394909 
L 546.676298 434.38276 
L 547.20439 434.920652 
L 547.732482 433.461163 
L 548.260573 434.898786 
L 548.788665 435.35159 
L 549.844848 432.203169 
L 550.37294 434.835847 
L 550.901032 434.843472 
L 551.429124 433.685439 
L 551.957215 434.513222 
L 552.485307 432.800073 
L 553.013399 433.843802 
L 553.541491 434.48589 
L 554.069582 434.729457 
L 554.597674 432.682182 
L 555.125766 433.992218 
L 555.653857 434.10748 
L 556.181949 433.706951 
L 556.710041 435.543477 
L 557.238133 434.536813 
L 557.766224 435.311341 
L 558.294316 432.935449 
L 558.822408 433.257694 
L 559.3505 433.290042 
L 559.878591 432.030189 
L 560.406683 433.093922 
L 560.934775 433.343777 
L 561.462867 432.953147 
L 561.990958 434.366024 
L 562.51905 431.574829 
L 563.047142 434.5971 
L 563.575233 430.844471 
L 564.103325 433.717612 
L 564.631417 433.664236 
L 565.159509 432.101041 
L 565.6876 432.608412 
L 566.215692 432.386212 
L 567.271876 430.823386 
L 567.799967 431.561239 
L 568.328059 432.639399 
L 568.856151 432.5693 
L 569.384242 434.518541 
L 569.912334 434.155211 
L 570.440426 432.97362 
L 570.968518 433.049154 
L 571.496609 431.023267 
L 572.024701 431.197406 
L 573.080885 430.059081 
L 573.608976 430.77471 
L 574.137068 432.522804 
L 574.66516 433.518595 
L 575.193251 432.625374 
L 575.721343 434.437362 
L 576.249435 432.399009 
L 576.777527 433.268103 
L 577.305618 432.108665 
L 577.83371 434.256718 
L 578.361802 430.669557 
L 578.889894 429.406429 
L 579.417985 429.878606 
L 579.946077 429.297701 
L 580.474169 431.29017 
L 581.00226 427.820571 
L 581.530352 433.313694 
L 582.058444 429.78144 
L 582.586536 431.385981 
L 583.114627 429.887714 
L 583.642719 431.258144 
L 584.170811 429.980585 
L 584.698903 430.833489 
L 585.226994 430.337227 
L 585.755086 429.37203 
L 586.811269 428.322716 
L 587.339361 431.954792 
L 587.867453 430.664939 
L 588.923636 429.146803 
L 589.451728 429.479604 
L 589.97982 428.559873 
L 590.507912 429.125666 
L 591.036003 430.151597 
L 591.564095 429.338502 
L 592.092187 430.657026 
L 592.620278 431.365942 
L 593.14837 429.634695 
L 593.676462 429.29155 
L 594.204554 430.001656 
L 594.732645 429.423512 
L 595.260737 427.167383 
L 595.788829 428.760957 
L 596.316921 424.303507 
L 596.845012 428.331429 
L 597.373104 431.24122 
L 598.429287 425.057008 
L 598.957379 426.529638 
L 600.013563 430.619789 
L 600.541654 424.504598 
L 601.069746 424.941277 
L 601.597838 424.08827 
L 602.12593 426.548628 
L 602.654021 424.232569 
L 603.182113 426.9149 
L 603.710205 425.013954 
L 604.238296 427.706118 
L 605.29448 424.984957 
L 605.822572 426.909032 
L 606.350663 424.690549 
L 606.878755 421.454182 
L 607.406847 422.740569 
L 607.934939 422.26623 
L 608.46303 418.599418 
L 608.991122 423.731577 
L 609.519214 425.336649 
L 610.047305 421.805715 
L 610.575397 423.425452 
L 611.103489 422.989498 
L 611.631581 420.824052 
L 612.159672 421.722643 
L 612.687764 422.844849 
L 613.215856 427.875729 
L 613.743948 420.926081 
L 614.272039 421.461861 
L 614.800131 422.982438 
L 615.328223 416.766157 
L 615.856314 420.485935 
L 616.384406 418.069077 
L 616.912498 422.859717 
L 617.44059 412.179458 
L 617.968681 423.512844 
L 618.496773 415.120577 
L 619.024865 421.372653 
L 620.081048 416.961443 
L 621.137232 420.394935 
L 621.665324 421.647768 
L 622.193415 409.748074 
L 622.721507 415.287629 
L 623.249599 406.278771 
L 624.305782 414.593213 
L 624.833874 398.799094 
L 625.361966 415.487209 
L 625.890057 408.16362 
L 626.418149 402.763515 
L 626.946241 413.503924 
L 627.474333 412.561615 
L 628.002424 402.131372 
L 628.530516 406.316611 
L 629.058608 400.206886 
L 629.586699 398.970814 
L 630.114791 401.760244 
L 630.642883 406.211147 
L 631.170975 400.136313 
L 631.699066 401.746587 
L 632.227158 409.621028 
L 633.283342 383.748194 
L 633.811433 391.568765 
L 634.339525 396.378006 
L 634.867617 388.763858 
L 635.395708 388.382044 
L 635.9238 373.978377 
L 636.451892 383.163962 
L 636.979984 377.725391 
L 637.508075 369.514568 
L 638.036167 376.65912 
L 638.564259 381.27116 
L 639.620442 352.56442 
L 640.148534 361.900946 
L 640.676626 341.257186 
L 641.204717 358.827719 
L 641.732809 339.272555 
L 642.260901 364.144602 
L 642.788993 340.817049 
L 643.317084 284.098752 
L 643.845176 293.034972 
L 644.373268 253.437096 
L 644.90136 251.734294 
L 645.429451 260.918076 
L 645.957543 214.590663 
L 646.485635 154.002075 
L 647.013726 165.703339 
L 647.541818 79.794 
L 647.541818 79.794 
" clip-path="url(#p4005effd56)" style="fill: none; stroke: #000000; stroke-opacity: 0.9; stroke-width: 2; stroke-linecap: round"/>
   </g>
   <g id="patch_3">
    <path d="M 93.6 458.172 
L 93.6 61.776 
" style="fill: none"/>
   </g>
   <g id="patch_4">
    <path d="M 673.92 458.172 
L 673.92 61.776 
" style="fill: none"/>
   </g>
   <g id="patch_5">
    <path d="M 93.6 458.172 
L 673.92 458.172 
" style="fill: none"/>
   </g>
   <g id="patch_6">
    <path d="M 93.6 61.776 
L 673.92 61.776 
" style="fill: none"/>
   </g>
  </g>
 </g>
 <defs>
  <clipPath id="p4005effd56">
   <rect x="93.6" y="61.776" width="580.32" height="396.396"/>
  </clipPath>
 </defs>
</svg>
