<?xml version="1.0" encoding="utf-8" standalone="no"?>
<!DOCTYPE svg PUBLIC "-//W3C//DTD SVG 1.1//EN"
  "http://www.w3.org/Graphics/SVG/1.1/DTD/svg11.dtd">
<svg xmlns:xlink="http://www.w3.org/1999/xlink" width="576pt" height="432pt" viewBox="0 0 576 432" xmlns="http://www.w3.org/2000/svg" version="1.1">
 <metadata>
  <rdf:RDF xmlns:dc="http://purl.org/dc/elements/1.1/" xmlns:cc="http://creativecommons.org/ns#" xmlns:rdf="http://www.w3.org/1999/02/22-rdf-syntax-ns#">
   <cc:Work>
    <dc:type rdf:resource="http://purl.org/dc/dcmitype/StillImage"/>
    <dc:date>2023-05-18T13:38:11.055958</dc:date>
    <dc:format>image/svg+xml</dc:format>
    <dc:creator>
     <cc:Agent>
      <dc:title>Matplotlib v3.5.2, https://matplotlib.org/</dc:title>
     </cc:Agent>
    </dc:creator>
   </cc:Work>
  </rdf:RDF>
 </metadata>
 <defs>
  <style type="text/css">*{stroke-linejoin: round; stroke-linecap: butt}</style>
 </defs>
 <g id="figure_1">
  <g id="patch_1">
   <path d="M 0 432 
L 576 432 
L 576 0 
L 0 0 
z
" style="fill: #ffffff"/>
  </g>
  <g id="axes_1">
   <g id="patch_2">
    <path d="M 72 384.48 
L 518.4 384.48 
L 518.4 51.84 
L 72 51.84 
z
" style="fill: #eaeaf2"/>
   </g>
   <g id="matplotlib.axis_1">
    <g id="xtick_1">
     <g id="line2d_1">
      <path d="M 84.008905 384.48 
L 84.008905 51.84 
" clip-path="url(#p417d364331)" style="fill: none; stroke: #ffffff; stroke-width: 1.3; stroke-linecap: round"/>
     </g>
     <g id="line2d_2"/>
     <g id="text_1">
      <text style="fill: #262626; font: 13px 'sans-serif'; text-anchor: middle" x="84.008905" y="402.885156" transform="rotate(-0, 84.008905, 402.885156)">0</text>
     </g>
    </g>
    <g id="xtick_2">
     <g id="line2d_3">
      <path d="M 166.828942 384.48 
L 166.828942 51.84 
" clip-path="url(#p417d364331)" style="fill: none; stroke: #ffffff; stroke-width: 1.3; stroke-linecap: round"/>
     </g>
     <g id="line2d_4"/>
     <g id="text_2">
      <text style="fill: #262626; font: 13px 'sans-serif'; text-anchor: middle" x="166.828942" y="402.885156" transform="rotate(-0, 166.828942, 402.885156)">500</text>
     </g>
    </g>
    <g id="xtick_3">
     <g id="line2d_5">
      <path d="M 249.64898 384.48 
L 249.64898 51.84 
" clip-path="url(#p417d364331)" style="fill: none; stroke: #ffffff; stroke-width: 1.3; stroke-linecap: round"/>
     </g>
     <g id="line2d_6"/>
     <g id="text_3">
      <text style="fill: #262626; font: 13px 'sans-serif'; text-anchor: middle" x="249.64898" y="402.885156" transform="rotate(-0, 249.64898, 402.885156)">1000</text>
     </g>
    </g>
    <g id="xtick_4">
     <g id="line2d_7">
      <path d="M 332.469017 384.48 
L 332.469017 51.84 
" clip-path="url(#p417d364331)" style="fill: none; stroke: #ffffff; stroke-width: 1.3; stroke-linecap: round"/>
     </g>
     <g id="line2d_8"/>
     <g id="text_4">
      <text style="fill: #262626; font: 13px 'sans-serif'; text-anchor: middle" x="332.469017" y="402.885156" transform="rotate(-0, 332.469017, 402.885156)">1500</text>
     </g>
    </g>
    <g id="xtick_5">
     <g id="line2d_9">
      <path d="M 415.289054 384.48 
L 415.289054 51.84 
" clip-path="url(#p417d364331)" style="fill: none; stroke: #ffffff; stroke-width: 1.3; stroke-linecap: round"/>
     </g>
     <g id="line2d_10"/>
     <g id="text_5">
      <text style="fill: #262626; font: 13px 'sans-serif'; text-anchor: middle" x="415.289054" y="402.885156" transform="rotate(-0, 415.289054, 402.885156)">2000</text>
     </g>
    </g>
    <g id="xtick_6">
     <g id="line2d_11">
      <path d="M 498.109091 384.48 
L 498.109091 51.84 
" clip-path="url(#p417d364331)" style="fill: none; stroke: #ffffff; stroke-width: 1.3; stroke-linecap: round"/>
     </g>
     <g id="line2d_12"/>
     <g id="text_6">
      <text style="fill: #262626; font: 13px 'sans-serif'; text-anchor: middle" x="498.109091" y="402.885156" transform="rotate(-0, 498.109091, 402.885156)">2500</text>
     </g>
    </g>
    <g id="text_7">
     <text style="fill: #262626; font: 14.3px 'sans-serif'; text-anchor: middle" x="295.2" y="419.704578" transform="rotate(-0, 295.2, 419.704578)">series length</text>
    </g>
   </g>
   <g id="matplotlib.axis_2">
    <g id="ytick_1">
     <g id="line2d_13">
      <path d="M 72 370.559976 
L 518.4 370.559976 
" clip-path="url(#p417d364331)" style="fill: none; stroke: #ffffff; stroke-width: 1.3; stroke-linecap: round"/>
     </g>
     <g id="line2d_14"/>
     <g id="text_8">
      <text style="fill: #262626; font: 13px 'sans-serif'; text-anchor: end" x="62.9" y="375.212554" transform="rotate(-0, 62.9, 375.212554)">0</text>
     </g>
    </g>
    <g id="ytick_2">
     <g id="line2d_15">
      <path d="M 72 314.693586 
L 518.4 314.693586 
" clip-path="url(#p417d364331)" style="fill: none; stroke: #ffffff; stroke-width: 1.3; stroke-linecap: round"/>
     </g>
     <g id="line2d_16"/>
     <g id="text_9">
      <text style="fill: #262626; font: 13px 'sans-serif'; text-anchor: end" x="62.9" y="319.346164" transform="rotate(-0, 62.9, 319.346164)">10</text>
     </g>
    </g>
    <g id="ytick_3">
     <g id="line2d_17">
      <path d="M 72 258.827196 
L 518.4 258.827196 
" clip-path="url(#p417d364331)" style="fill: none; stroke: #ffffff; stroke-width: 1.3; stroke-linecap: round"/>
     </g>
     <g id="line2d_18"/>
     <g id="text_10">
      <text style="fill: #262626; font: 13px 'sans-serif'; text-anchor: end" x="62.9" y="263.479774" transform="rotate(-0, 62.9, 263.479774)">20</text>
     </g>
    </g>
    <g id="ytick_4">
     <g id="line2d_19">
      <path d="M 72 202.960805 
L 518.4 202.960805 
" clip-path="url(#p417d364331)" style="fill: none; stroke: #ffffff; stroke-width: 1.3; stroke-linecap: round"/>
     </g>
     <g id="line2d_20"/>
     <g id="text_11">
      <text style="fill: #262626; font: 13px 'sans-serif'; text-anchor: end" x="62.9" y="207.613383" transform="rotate(-0, 62.9, 207.613383)">30</text>
     </g>
    </g>
    <g id="ytick_5">
     <g id="line2d_21">
      <path d="M 72 147.094415 
L 518.4 147.094415 
" clip-path="url(#p417d364331)" style="fill: none; stroke: #ffffff; stroke-width: 1.3; stroke-linecap: round"/>
     </g>
     <g id="line2d_22"/>
     <g id="text_12">
      <text style="fill: #262626; font: 13px 'sans-serif'; text-anchor: end" x="62.9" y="151.746993" transform="rotate(-0, 62.9, 151.746993)">40</text>
     </g>
    </g>
    <g id="ytick_6">
     <g id="line2d_23">
      <path d="M 72 91.228025 
L 518.4 91.228025 
" clip-path="url(#p417d364331)" style="fill: none; stroke: #ffffff; stroke-width: 1.3; stroke-linecap: round"/>
     </g>
     <g id="line2d_24"/>
     <g id="text_13">
      <text style="fill: #262626; font: 13px 'sans-serif'; text-anchor: end" x="62.9" y="95.880603" transform="rotate(-0, 62.9, 95.880603)">50</text>
     </g>
    </g>
    <g id="text_14">
     <text style="fill: #262626; font: 14.3px 'sans-serif'; text-anchor: middle" x="41.431859" y="218.16" transform="rotate(-90, 41.431859, 218.16)">time (s)</text>
    </g>
   </g>
   <g id="line2d_25">
    <path d="M 92.290909 308.254175 
L 100.572913 300.575882 
L 117.13692 310.602943 
L 150.264935 309.03569 
L 216.520965 274.812687 
L 249.64898 253.608265 
L 282.776994 277.744578 
L 349.033024 202.257145 
L 415.289054 178.69245 
L 498.109091 141.175237 
" clip-path="url(#p417d364331)" style="fill: none; stroke: #0000ff; stroke-width: 2.275; stroke-linecap: round"/>
   </g>
   <g id="line2d_26">
    <path d="M 92.290909 369.36 
L 100.572913 367.975018 
L 117.13692 364.569441 
L 150.264935 355.464787 
L 216.520965 328.637569 
L 249.64898 309.572705 
L 282.776994 288.72372 
L 349.033024 236.298678 
L 415.289054 169.906825 
L 498.109091 66.96 
" clip-path="url(#p417d364331)" style="fill: none; stroke-dasharray: 8.4175,3.64; stroke-dashoffset: 0; stroke: #0000ff; stroke-width: 2.275"/>
   </g>
   <g id="line2d_27">
    <path d="M 92.290909 302.366136 
L 100.572913 300.055888 
L 117.13692 300.305935 
L 150.264935 286.694496 
L 216.520965 273.216272 
L 249.64898 255.808137 
L 282.776994 284.889895 
L 349.033024 273.13945 
L 415.289054 207.322792 
L 498.109091 130.477008 
" clip-path="url(#p417d364331)" style="fill: none; stroke: #ff0000; stroke-width: 2.275; stroke-linecap: round"/>
   </g>
   <g id="line2d_28">
    <path d="M 92.290909 369.355591 
L 100.572913 367.993662 
L 117.13692 364.612255 
L 150.264935 355.908692 
L 216.520965 329.18002 
L 249.64898 311.682163 
L 282.776994 291.26663 
L 349.033024 239.946406 
L 415.289054 176.233581 
L 498.109091 76.948988 
" clip-path="url(#p417d364331)" style="fill: none; stroke-dasharray: 8.4175,3.64; stroke-dashoffset: 0; stroke: #ff0000; stroke-width: 2.275"/>
   </g>
   <g id="patch_3">
    <path d="M 72 384.48 
L 72 51.84 
" style="fill: none"/>
   </g>
   <g id="patch_4">
    <path d="M 518.4 384.48 
L 518.4 51.84 
" style="fill: none"/>
   </g>
   <g id="patch_5">
    <path d="M 72 384.48 
L 518.4 384.48 
" style="fill: none"/>
   </g>
   <g id="patch_6">
    <path d="M 72 51.84 
L 518.4 51.84 
" style="fill: none"/>
   </g>
   <g id="text_15">
    <text style="fill: #262626; font: 15.6px 'sans-serif'; text-anchor: middle" x="295.2" y="45.84" transform="rotate(-0, 295.2, 45.84)">Varying series length</text>
   </g>
   <g id="legend_1">
    <g id="line2d_29">
     <path d="M 83.7 68.295156 
L 96.7 68.295156 
L 109.7 68.295156 
" style="fill: none; stroke: #0000ff; stroke-width: 2.275; stroke-linecap: round"/>
    </g>
    <g id="text_16">
     <text style="fill: #262626; font: 13px 'sans-serif'; text-anchor: start" x="120.1" y="72.845156" transform="rotate(-0, 120.1, 72.845156)">Logistic map AMI distance</text>
    </g>
    <g id="line2d_30">
     <path d="M 83.7 86.836406 
L 96.7 86.836406 
L 109.7 86.836406 
" style="fill: none; stroke-dasharray: 8.4175,3.64; stroke-dashoffset: 0; stroke: #0000ff; stroke-width: 2.275"/>
    </g>
    <g id="text_17">
     <text style="fill: #262626; font: 13px 'sans-serif'; text-anchor: start" x="120.1" y="91.386406" transform="rotate(-0, 120.1, 91.386406)">Logistic map Eckmann's method</text>
    </g>
    <g id="line2d_31">
     <path d="M 83.7 105.377656 
L 96.7 105.377656 
L 109.7 105.377656 
" style="fill: none; stroke: #ff0000; stroke-width: 2.275; stroke-linecap: round"/>
    </g>
    <g id="text_18">
     <text style="fill: #262626; font: 13px 'sans-serif'; text-anchor: start" x="120.1" y="109.927656" transform="rotate(-0, 120.1, 109.927656)">Tent map AMI distance</text>
    </g>
    <g id="line2d_32">
     <path d="M 83.7 123.766562 
L 96.7 123.766562 
L 109.7 123.766562 
" style="fill: none; stroke-dasharray: 8.4175,3.64; stroke-dashoffset: 0; stroke: #ff0000; stroke-width: 2.275"/>
    </g>
    <g id="text_19">
     <text style="fill: #262626; font: 13px 'sans-serif'; text-anchor: start" x="120.1" y="128.316562" transform="rotate(-0, 120.1, 128.316562)">Tent map Eckmann's method</text>
    </g>
   </g>
  </g>
 </g>
 <defs>
  <clipPath id="p417d364331">
   <rect x="72" y="51.84" width="446.4" height="332.64"/>
  </clipPath>
 </defs>
</svg>
