<?xml version="1.0" encoding="utf-8" standalone="no"?>
<!DOCTYPE svg PUBLIC "-//W3C//DTD SVG 1.1//EN"
  "http://www.w3.org/Graphics/SVG/1.1/DTD/svg11.dtd">
<svg xmlns:xlink="http://www.w3.org/1999/xlink" width="748.8pt" height="514.8pt" viewBox="0 0 748.8 514.8" xmlns="http://www.w3.org/2000/svg" version="1.1">
 <metadata>
  <rdf:RDF xmlns:dc="http://purl.org/dc/elements/1.1/" xmlns:cc="http://creativecommons.org/ns#" xmlns:rdf="http://www.w3.org/1999/02/22-rdf-syntax-ns#">
   <cc:Work>
    <dc:type rdf:resource="http://purl.org/dc/dcmitype/StillImage"/>
    <dc:date>2023-05-18T13:38:11.398781</dc:date>
    <dc:format>image/svg+xml</dc:format>
    <dc:creator>
     <cc:Agent>
      <dc:title>Matplotlib v3.5.2, https://matplotlib.org/</dc:title>
     </cc:Agent>
    </dc:creator>
   </cc:Work>
  </rdf:RDF>
 </metadata>
 <defs>
  <style type="text/css">*{stroke-linejoin: round; stroke-linecap: butt}</style>
 </defs>
 <g id="figure_1">
  <g id="patch_1">
   <path d="M 0 514.8 
L 748.8 514.8 
L 748.8 0 
L 0 0 
z
" style="fill: #ffffff"/>
  </g>
  <g id="axes_1">
   <g id="patch_2">
    <path d="M 93.6 458.172 
L 673.92 458.172 
L 673.92 61.776 
L 93.6 61.776 
z
" style="fill: #eaeaf2"/>
   </g>
   <g id="matplotlib.axis_1">
    <g id="xtick_1">
     <g id="line2d_1">
      <path d="M 111.036425 458.172 
L 111.036425 61.776 
" clip-path="url(#p19d7bd2efc)" style="fill: none; stroke: #ffffff; stroke-width: 1.3; stroke-linecap: round"/>
     </g>
     <g id="line2d_2"/>
     <g id="text_1">
      <text style="fill: #262626; font: 13px 'sans-serif'; text-anchor: middle" x="111.036425" y="476.577156" transform="rotate(-0, 111.036425, 476.577156)">0</text>
     </g>
    </g>
    <g id="xtick_2">
     <g id="line2d_3">
      <path d="M 200.453991 458.172 
L 200.453991 61.776 
" clip-path="url(#p19d7bd2efc)" style="fill: none; stroke: #ffffff; stroke-width: 1.3; stroke-linecap: round"/>
     </g>
     <g id="line2d_4"/>
     <g id="text_2">
      <text style="fill: #262626; font: 13px 'sans-serif'; text-anchor: middle" x="200.453991" y="476.577156" transform="rotate(-0, 200.453991, 476.577156)">10</text>
     </g>
    </g>
    <g id="xtick_3">
     <g id="line2d_5">
      <path d="M 289.871556 458.172 
L 289.871556 61.776 
" clip-path="url(#p19d7bd2efc)" style="fill: none; stroke: #ffffff; stroke-width: 1.3; stroke-linecap: round"/>
     </g>
     <g id="line2d_6"/>
     <g id="text_3">
      <text style="fill: #262626; font: 13px 'sans-serif'; text-anchor: middle" x="289.871556" y="476.577156" transform="rotate(-0, 289.871556, 476.577156)">20</text>
     </g>
    </g>
    <g id="xtick_4">
     <g id="line2d_7">
      <path d="M 379.289122 458.172 
L 379.289122 61.776 
" clip-path="url(#p19d7bd2efc)" style="fill: none; stroke: #ffffff; stroke-width: 1.3; stroke-linecap: round"/>
     </g>
     <g id="line2d_8"/>
     <g id="text_4">
      <text style="fill: #262626; font: 13px 'sans-serif'; text-anchor: middle" x="379.289122" y="476.577156" transform="rotate(-0, 379.289122, 476.577156)">30</text>
     </g>
    </g>
    <g id="xtick_5">
     <g id="line2d_9">
      <path d="M 468.706687 458.172 
L 468.706687 61.776 
" clip-path="url(#p19d7bd2efc)" style="fill: none; stroke: #ffffff; stroke-width: 1.3; stroke-linecap: round"/>
     </g>
     <g id="line2d_10"/>
     <g id="text_5">
      <text style="fill: #262626; font: 13px 'sans-serif'; text-anchor: middle" x="468.706687" y="476.577156" transform="rotate(-0, 468.706687, 476.577156)">40</text>
     </g>
    </g>
    <g id="xtick_6">
     <g id="line2d_11">
      <path d="M 558.124253 458.172 
L 558.124253 61.776 
" clip-path="url(#p19d7bd2efc)" style="fill: none; stroke: #ffffff; stroke-width: 1.3; stroke-linecap: round"/>
     </g>
     <g id="line2d_12"/>
     <g id="text_6">
      <text style="fill: #262626; font: 13px 'sans-serif'; text-anchor: middle" x="558.124253" y="476.577156" transform="rotate(-0, 558.124253, 476.577156)">50</text>
     </g>
    </g>
    <g id="xtick_7">
     <g id="line2d_13">
      <path d="M 647.541818 458.172 
L 647.541818 61.776 
" clip-path="url(#p19d7bd2efc)" style="fill: none; stroke: #ffffff; stroke-width: 1.3; stroke-linecap: round"/>
     </g>
     <g id="line2d_14"/>
     <g id="text_7">
      <text style="fill: #262626; font: 13px 'sans-serif'; text-anchor: middle" x="647.541818" y="476.577156" transform="rotate(-0, 647.541818, 476.577156)">60</text>
     </g>
    </g>
    <g id="text_8">
     <text style="fill: #262626; font: 14.3px 'sans-serif'; text-anchor: middle" x="383.76" y="493.396578" transform="rotate(-0, 383.76, 493.396578)">SNR</text>
    </g>
   </g>
   <g id="matplotlib.axis_2">
    <g id="ytick_1">
     <g id="line2d_15">
      <path d="M 93.6 395.104011 
L 673.92 395.104011 
" clip-path="url(#p19d7bd2efc)" style="fill: none; stroke: #ffffff; stroke-width: 1.3; stroke-linecap: round"/>
     </g>
     <g id="line2d_16"/>
     <g id="text_9">
      <text style="fill: #262626; font: 13px 'sans-serif'; text-anchor: end" x="84.5" y="399.756589" transform="rotate(-0, 84.5, 399.756589)">0.0</text>
     </g>
    </g>
    <g id="ytick_2">
     <g id="line2d_17">
      <path d="M 93.6 331.224099 
L 673.92 331.224099 
" clip-path="url(#p19d7bd2efc)" style="fill: none; stroke: #ffffff; stroke-width: 1.3; stroke-linecap: round"/>
     </g>
     <g id="line2d_18"/>
     <g id="text_10">
      <text style="fill: #262626; font: 13px 'sans-serif'; text-anchor: end" x="84.5" y="335.876678" transform="rotate(-0, 84.5, 335.876678)">0.2</text>
     </g>
    </g>
    <g id="ytick_3">
     <g id="line2d_19">
      <path d="M 93.6 267.344188 
L 673.92 267.344188 
" clip-path="url(#p19d7bd2efc)" style="fill: none; stroke: #ffffff; stroke-width: 1.3; stroke-linecap: round"/>
     </g>
     <g id="line2d_20"/>
     <g id="text_11">
      <text style="fill: #262626; font: 13px 'sans-serif'; text-anchor: end" x="84.5" y="271.996766" transform="rotate(-0, 84.5, 271.996766)">0.4</text>
     </g>
    </g>
    <g id="ytick_4">
     <g id="line2d_21">
      <path d="M 93.6 203.464276 
L 673.92 203.464276 
" clip-path="url(#p19d7bd2efc)" style="fill: none; stroke: #ffffff; stroke-width: 1.3; stroke-linecap: round"/>
     </g>
     <g id="line2d_22"/>
     <g id="text_12">
      <text style="fill: #262626; font: 13px 'sans-serif'; text-anchor: end" x="84.5" y="208.116854" transform="rotate(-0, 84.5, 208.116854)">0.6</text>
     </g>
    </g>
    <g id="ytick_5">
     <g id="line2d_23">
      <path d="M 93.6 139.584364 
L 673.92 139.584364 
" clip-path="url(#p19d7bd2efc)" style="fill: none; stroke: #ffffff; stroke-width: 1.3; stroke-linecap: round"/>
     </g>
     <g id="line2d_24"/>
     <g id="text_13">
      <text style="fill: #262626; font: 13px 'sans-serif'; text-anchor: end" x="84.5" y="144.236943" transform="rotate(-0, 84.5, 144.236943)">0.8</text>
     </g>
    </g>
    <g id="ytick_6">
     <g id="line2d_25">
      <path d="M 93.6 75.704453 
L 673.92 75.704453 
" clip-path="url(#p19d7bd2efc)" style="fill: none; stroke: #ffffff; stroke-width: 1.3; stroke-linecap: round"/>
     </g>
     <g id="line2d_26"/>
     <g id="text_14">
      <text style="fill: #262626; font: 13px 'sans-serif'; text-anchor: end" x="84.5" y="80.357031" transform="rotate(-0, 84.5, 80.357031)">1.0</text>
     </g>
    </g>
    <g id="text_15">
     <text style="fill: #262626; font: 14.3px 'sans-serif'; text-anchor: middle" x="59.420297" y="259.974" transform="rotate(-90, 59.420297, 259.974)">Correlation with analytical Lyapunov exponent</text>
    </g>
   </g>
   <g id="line2d_27">
    <path d="M 647.541818 102.266565 
L 558.124253 99.89812 
L 468.706687 103.196825 
L 423.997904 108.191048 
L 379.289122 115.296733 
L 334.580339 137.140464 
L 289.871556 165.353296 
L 245.162773 202.363002 
L 200.453991 251.243716 
L 155.745208 391.002976 
L 119.978182 352.350601 
" clip-path="url(#p19d7bd2efc)" style="fill: none; stroke: #0000ff; stroke-width: 2.275; stroke-linecap: round"/>
   </g>
   <g id="line2d_28">
    <path d="M 647.541818 79.794 
L 558.124253 81.673758 
L 468.706687 82.564341 
L 423.997904 84.978242 
L 379.289122 88.337721 
L 334.580339 90.731044 
L 289.871556 94.201359 
L 245.162773 101.33153 
L 200.453991 119.089332 
L 155.745208 171.389174 
L 119.978182 353.411115 
" clip-path="url(#p19d7bd2efc)" style="fill: none; stroke-dasharray: 8.4175,3.64; stroke-dashoffset: 0; stroke: #0000ff; stroke-width: 2.275"/>
   </g>
   <g id="line2d_29">
    <path d="M 647.541818 84.425095 
L 558.124253 85.281178 
L 468.706687 90.549125 
L 423.997904 97.446759 
L 379.289122 100.210796 
L 334.580339 111.336278 
L 289.871556 125.3339 
L 245.162773 143.617039 
L 200.453991 170.646011 
L 155.745208 364.713347 
L 119.978182 440.154 
" clip-path="url(#p19d7bd2efc)" style="fill: none; stroke: #ff0000; stroke-width: 2.275; stroke-linecap: round"/>
   </g>
   <g id="line2d_30">
    <path d="M 647.541818 80.480433 
L 558.124253 83.285218 
L 468.706687 84.701516 
L 423.997904 87.020643 
L 379.289122 89.447461 
L 334.580339 94.626052 
L 289.871556 103.807931 
L 245.162773 113.625517 
L 200.453991 172.888543 
L 155.745208 358.261671 
L 119.978182 418.019284 
" clip-path="url(#p19d7bd2efc)" style="fill: none; stroke-dasharray: 8.4175,3.64; stroke-dashoffset: 0; stroke: #ff0000; stroke-width: 2.275"/>
   </g>
   <g id="patch_3">
    <path d="M 93.6 458.172 
L 93.6 61.776 
" style="fill: none"/>
   </g>
   <g id="patch_4">
    <path d="M 673.92 458.172 
L 673.92 61.776 
" style="fill: none"/>
   </g>
   <g id="patch_5">
    <path d="M 93.6 458.172 
L 673.92 458.172 
" style="fill: none"/>
   </g>
   <g id="patch_6">
    <path d="M 93.6 61.776 
L 673.92 61.776 
" style="fill: none"/>
   </g>
   <g id="text_16">
    <text style="fill: #262626; font: 15.6px 'sans-serif'; text-anchor: middle" x="383.76" y="55.776" transform="rotate(-0, 383.76, 55.776)">Varying SNR</text>
   </g>
   <g id="legend_1">
    <g id="line2d_31">
     <path d="M 439.095313 383.866844 
L 452.095313 383.866844 
L 465.095313 383.866844 
" style="fill: none; stroke: #0000ff; stroke-width: 2.275; stroke-linecap: round"/>
    </g>
    <g id="text_17">
     <text style="fill: #262626; font: 13px 'sans-serif'; text-anchor: start" x="475.495313" y="388.416844" transform="rotate(-0, 475.495313, 388.416844)">Logistic map AMI distance</text>
    </g>
    <g id="line2d_32">
     <path d="M 439.095313 402.408094 
L 452.095313 402.408094 
L 465.095313 402.408094 
" style="fill: none; stroke-dasharray: 8.4175,3.64; stroke-dashoffset: 0; stroke: #0000ff; stroke-width: 2.275"/>
    </g>
    <g id="text_18">
     <text style="fill: #262626; font: 13px 'sans-serif'; text-anchor: start" x="475.495313" y="406.958094" transform="rotate(-0, 475.495313, 406.958094)">Logistic map Eckmann's method</text>
    </g>
    <g id="line2d_33">
     <path d="M 439.095313 420.949344 
L 452.095313 420.949344 
L 465.095313 420.949344 
" style="fill: none; stroke: #ff0000; stroke-width: 2.275; stroke-linecap: round"/>
    </g>
    <g id="text_19">
     <text style="fill: #262626; font: 13px 'sans-serif'; text-anchor: start" x="475.495313" y="425.499344" transform="rotate(-0, 475.495313, 425.499344)">Tent map AMI distance</text>
    </g>
    <g id="line2d_34">
     <path d="M 439.095313 439.33825 
L 452.095313 439.33825 
L 465.095313 439.33825 
" style="fill: none; stroke-dasharray: 8.4175,3.64; stroke-dashoffset: 0; stroke: #ff0000; stroke-width: 2.275"/>
    </g>
    <g id="text_20">
     <text style="fill: #262626; font: 13px 'sans-serif'; text-anchor: start" x="475.495313" y="443.88825" transform="rotate(-0, 475.495313, 443.88825)">Tent map Eckmann's method</text>
    </g>
   </g>
  </g>
 </g>
 <defs>
  <clipPath id="p19d7bd2efc">
   <rect x="93.6" y="61.776" width="580.32" height="396.396"/>
  </clipPath>
 </defs>
</svg>
